HIERARCHY
ROOT newVegas:Hips
{
	OFFSET 0.000000 96.479958 0.000000
	CHANNELS 6 Xposition Yposition Zposition Xrotation Yrotation Zrotation
	JOINT newVegas:Pelvis
	{
		OFFSET 0.000000 0.000000 0.000000
		CHANNELS 3 Xrotation Yrotation Zrotation
		JOINT newVegas:LeftUpLeg
		{
			OFFSET 18.735201 -5.666702 -4.541200
			CHANNELS 3 Xrotation Yrotation Zrotation
			JOINT newVegas:LeftLeg
			{
				OFFSET -0.021200 -31.938179 0.493100
				CHANNELS 3 Xrotation Yrotation Zrotation
				JOINT newVegas:LeftFoot
				{
					OFFSET 0.021200 -31.938179 -4.336299
					CHANNELS 3 Xrotation Yrotation Zrotation
					JOINT newVegas:LeftToeBase
					{
						OFFSET 0.943001 -26.722000 15.023500
						CHANNELS 3 Xrotation Yrotation Zrotation
						End Site
						{
							OFFSET 0.000000 30.670183 0.000000
						}
					}
				}
				JOINT newVegas:Left_PantLeg
				{
					OFFSET 0.663870 -9.044666 -1.108900
					CHANNELS 3 Xrotation Yrotation Zrotation
					End Site
					{
						OFFSET 1.415995 20.635357 0.000000
					}
				}
			}
		}
		JOINT newVegas:RightUpLeg
		{
			OFFSET -18.735201 -5.666702 -4.541200
			CHANNELS 3 Xrotation Yrotation Zrotation
			JOINT newVegas:RightLeg
			{
				OFFSET 0.018946 -31.938133 0.493100
				CHANNELS 3 Xrotation Yrotation Zrotation
				JOINT newVegas:RightFoot
				{
					OFFSET -0.018946 -31.938126 -4.336299
					CHANNELS 3 Xrotation Yrotation Zrotation
					JOINT newVegas:RightToeBase
					{
						OFFSET -0.943001 -26.722004 15.023500
						CHANNELS 3 Xrotation Yrotation Zrotation
						End Site
						{
							OFFSET 0.000000 30.670187 0.000000
						}
					}
				}
				JOINT newVegas:Right_PantLeg
				{
					OFFSET -0.661674 -9.044716 -1.108900
					CHANNELS 3 Xrotation Yrotation Zrotation
					End Site
					{
						OFFSET -1.415958 20.635269 0.000000
					}
				}
			}
		}
	}
	JOINT newVegas:Spine
	{
		OFFSET 0.000000 10.199997 -0.299500
		CHANNELS 3 Xrotation Yrotation Zrotation
		JOINT newVegas:Spine1
		{
			OFFSET 0.000000 11.900002 -1.516600
			CHANNELS 3 Xrotation Yrotation Zrotation
			JOINT newVegas:Spine2
			{
				OFFSET 0.000000 13.600006 -2.842500
				CHANNELS 3 Xrotation Yrotation Zrotation
				JOINT newVegas:Neck
				{
					OFFSET 0.000000 9.624100 -2.890100
					CHANNELS 3 Xrotation Yrotation Zrotation
					JOINT newVegas:Head
					{
						OFFSET 0.000000 14.068802 -1.351900
						CHANNELS 3 Xrotation Yrotation Zrotation
						JOINT newVegas:Hair_Back
						{
							OFFSET 0.000000 3.231903 -17.524799
							CHANNELS 3 Xrotation Yrotation Zrotation
							End Site
							{
								OFFSET 0.000000 19.849884 0.000000
							}
						}
						JOINT newVegas:Hair_Front
						{
							OFFSET 0.000000 31.260406 4.573800
							CHANNELS 3 Xrotation Yrotation Zrotation
							JOINT newVegas:Hair_Front1
							{
								OFFSET 0.000000 2.284103 11.993300
								CHANNELS 3 Xrotation Yrotation Zrotation
								JOINT newVegas:Hair_Front2
								{
									OFFSET 0.000000 2.284103 11.993300
									CHANNELS 3 Xrotation Yrotation Zrotation
									End Site
									{
										OFFSET 0.000000 12.208862 0.000000
									}
								}
							}
						}
						JOINT newVegas:Jowel
						{
							OFFSET 0.000000 -7.458206 6.864100
							CHANNELS 3 Xrotation Yrotation Zrotation
							End Site
							{
								OFFSET 0.000000 19.849884 0.000000
							}
						}
					}
				}
				JOINT newVegas:LeftShoulder
				{
					OFFSET 15.263000 10.923401 -0.547700
					CHANNELS 3 Xrotation Yrotation Zrotation
					JOINT newVegas:LeftArm
					{
						OFFSET 25.438599 -2.830597 -13.032500
						CHANNELS 3 Xrotation Yrotation Zrotation
						JOINT newVegas:LeftForeArm
						{
							OFFSET 29.960503 0.000000 0.000000
							CHANNELS 3 Xrotation Yrotation Zrotation
							JOINT newVegas:LeftHand
							{
								OFFSET 27.849251 0.000000 0.000000
								CHANNELS 3 Xrotation Yrotation Zrotation
								JOINT newVegas:LeftHandThumb1
								{
									OFFSET 4.487587 -3.305161 6.305391
									CHANNELS 3 Xrotation Yrotation Zrotation
									JOINT newVegas:LeftHandThumb2
									{
										OFFSET 5.480453 -3.164139 3.164143
										CHANNELS 3 Xrotation Yrotation Zrotation
										JOINT newVegas:LeftHandThumb3
										{
											OFFSET 5.159721 -2.978973 2.978967
											CHANNELS 3 Xrotation Yrotation Zrotation
											End Site
											{
												OFFSET 2.494507 5.926697 1.738678
											}
										}
									}
								}
								JOINT newVegas:LeftHandIndex1
								{
									OFFSET 18.578728 -0.527832 5.208049
									CHANNELS 3 Xrotation Yrotation Zrotation
									JOINT newVegas:LeftHandIndex2
									{
										OFFSET 3.192009 0.000000 0.000000
										CHANNELS 3 Xrotation Yrotation Zrotation
										JOINT newVegas:LeftHandIndex3
										{
											OFFSET 3.835129 0.000000 0.000000
											CHANNELS 3 Xrotation Yrotation Zrotation
											End Site
											{
												OFFSET -0.034599 3.816971 0.371180
											}
										}
									}
								}
								JOINT newVegas:LeftHandMiddle1
								{
									OFFSET 18.476105 0.000000 0.000000
									CHANNELS 3 Xrotation Yrotation Zrotation
									JOINT newVegas:LeftHandMiddle2
									{
										OFFSET 3.324875 0.000000 0.000000
										CHANNELS 3 Xrotation Yrotation Zrotation
										JOINT newVegas:LeftHandMiddle3
										{
											OFFSET 4.596550 0.000000 0.000000
											CHANNELS 3 Xrotation Yrotation Zrotation
											End Site
											{
												OFFSET 0.057701 4.578827 0.399218
											}
										}
									}
								}
								JOINT newVegas:LeftHandRing1
								{
									OFFSET 17.732719 0.121887 -4.201567
									CHANNELS 3 Xrotation Yrotation Zrotation
									JOINT newVegas:LeftHandRing2
									{
										OFFSET 2.733170 0.000000 0.000000
										CHANNELS 3 Xrotation Yrotation Zrotation
										JOINT newVegas:LeftHandRing3
										{
											OFFSET 3.178268 0.000000 0.000000
											CHANNELS 3 Xrotation Yrotation Zrotation
											End Site
											{
												OFFSET 0.119102 3.170624 0.185394
											}
										}
									}
								}
								JOINT newVegas:LeftHandPinky1
								{
									OFFSET 15.989624 -0.606689 -7.535461
									CHANNELS 3 Xrotation Yrotation Zrotation
									JOINT newVegas:LeftHandPinky2
									{
										OFFSET 2.538986 0.000000 0.000000
										CHANNELS 3 Xrotation Yrotation Zrotation
										JOINT newVegas:LeftHandPinky3
										{
											OFFSET 2.593102 0.000000 0.000000
											CHANNELS 3 Xrotation Yrotation Zrotation
											End Site
											{
												OFFSET -0.150902 2.584198 0.152708
											}
										}
									}
								}
							}
							JOINT newVegas:Left_Sleeve
							{
								OFFSET 0.267448 -0.649796 0.577675
								CHANNELS 3 Xrotation Yrotation Zrotation
								End Site
								{
									OFFSET 0.000000 15.991241 0.000000
								}
							}
							JOINT newVegas:Left_CapeC
							{
								OFFSET 15.715958 -8.608795 -6.935905
								CHANNELS 3 Xrotation Yrotation Zrotation
								JOINT newVegas:Left_CapeC1
								{
									OFFSET 0.000000 -8.688499 0.000000
									CHANNELS 3 Xrotation Yrotation Zrotation
									End Site
									{
										OFFSET 0.000000 8.688499 0.000000
									}
								}
							}
						}
						JOINT newVegas:Left_CapeB
						{
							OFFSET 26.118385 -8.608795 -7.079235
							CHANNELS 3 Xrotation Yrotation Zrotation
							JOINT newVegas:Left_CapeB1
							{
								OFFSET 0.000000 -8.688499 0.000000
								CHANNELS 3 Xrotation Yrotation Zrotation
								End Site
								{
									OFFSET 0.000000 8.688499 0.000000
								}
							}
						}
						JOINT newVegas:Left_CapeA
						{
							OFFSET 5.115639 -8.608795 -10.395809
							CHANNELS 3 Xrotation Yrotation Zrotation
							JOINT newVegas:Left_CapeA1
							{
								OFFSET 0.000000 -8.688499 0.000000
								CHANNELS 3 Xrotation Yrotation Zrotation
								End Site
								{
									OFFSET 0.000000 8.688499 0.000000
								}
							}
						}
					}
				}
				JOINT newVegas:RightShoulder
				{
					OFFSET -15.263000 10.923401 -0.547700
					CHANNELS 3 Xrotation Yrotation Zrotation
					JOINT newVegas:RightArm
					{
						OFFSET -25.438599 -2.830597 -13.032500
						CHANNELS 3 Xrotation Yrotation Zrotation
						JOINT newVegas:RightForeArm
						{
							OFFSET -29.960503 0.000000 0.000000
							CHANNELS 3 Xrotation Yrotation Zrotation
							JOINT newVegas:RightHand
							{
								OFFSET -27.849251 0.000000 0.000000
								CHANNELS 3 Xrotation Yrotation Zrotation
								JOINT newVegas:RightHandThumb1
								{
									OFFSET -4.487587 -3.305161 6.305391
									CHANNELS 3 Xrotation Yrotation Zrotation
									JOINT newVegas:RightHandThumb2
									{
										OFFSET -5.480453 -3.164139 3.164143
										CHANNELS 3 Xrotation Yrotation Zrotation
										JOINT newVegas:RightHandThumb3
										{
											OFFSET -5.159721 -2.978973 2.978967
											CHANNELS 3 Xrotation Yrotation Zrotation
											End Site
											{
												OFFSET -2.494507 5.926697 1.738678
											}
										}
									}
								}
								JOINT newVegas:RightHandIndex1
								{
									OFFSET -18.578728 -0.527832 5.208049
									CHANNELS 3 Xrotation Yrotation Zrotation
									JOINT newVegas:RightHandIndex2
									{
										OFFSET -3.192009 0.000000 0.000000
										CHANNELS 3 Xrotation Yrotation Zrotation
										JOINT newVegas:RightHandIndex3
										{
											OFFSET -3.835129 0.000000 0.000000
											CHANNELS 3 Xrotation Yrotation Zrotation
											End Site
											{
												OFFSET 0.034599 3.816971 0.371180
											}
										}
									}
								}
								JOINT newVegas:RightHandMiddle1
								{
									OFFSET -18.476105 0.000000 0.000000
									CHANNELS 3 Xrotation Yrotation Zrotation
									JOINT newVegas:RightHandMiddle2
									{
										OFFSET -3.324875 0.000000 0.000000
										CHANNELS 3 Xrotation Yrotation Zrotation
										JOINT newVegas:RightHandMiddle3
										{
											OFFSET -4.596550 0.000000 0.000000
											CHANNELS 3 Xrotation Yrotation Zrotation
											End Site
											{
												OFFSET -0.057701 4.578827 0.399218
											}
										}
									}
								}
								JOINT newVegas:RightHandRing1
								{
									OFFSET -17.732719 0.121887 -4.201567
									CHANNELS 3 Xrotation Yrotation Zrotation
									JOINT newVegas:RightHandRing2
									{
										OFFSET -2.733170 0.000000 0.000000
										CHANNELS 3 Xrotation Yrotation Zrotation
										JOINT newVegas:RightHandRing3
										{
											OFFSET -3.178268 0.000000 0.000000
											CHANNELS 3 Xrotation Yrotation Zrotation
											End Site
											{
												OFFSET -0.119102 3.170624 0.185394
											}
										}
									}
								}
								JOINT newVegas:RightHandPinky1
								{
									OFFSET -15.989624 -0.606689 -7.535461
									CHANNELS 3 Xrotation Yrotation Zrotation
									JOINT newVegas:RightHandPinky2
									{
										OFFSET -2.538986 0.000000 0.000000
										CHANNELS 3 Xrotation Yrotation Zrotation
										JOINT newVegas:RightHandPinky3
										{
											OFFSET -2.593102 0.000000 0.000000
											CHANNELS 3 Xrotation Yrotation Zrotation
											End Site
											{
												OFFSET 0.150902 2.584198 0.152708
											}
										}
									}
								}
							}
							JOINT newVegas:Right_CapeC
							{
								OFFSET -15.715958 -8.608795 -6.935905
								CHANNELS 3 Xrotation Yrotation Zrotation
								JOINT newVegas:Right_CapeC1
								{
									OFFSET 0.000000 -8.688499 0.000000
									CHANNELS 3 Xrotation Yrotation Zrotation
									End Site
									{
										OFFSET 0.000000 8.688499 0.000000
									}
								}
							}
							JOINT newVegas:Right_Sleeve
							{
								OFFSET -0.267448 -0.649994 0.577675
								CHANNELS 3 Xrotation Yrotation Zrotation
								End Site
								{
									OFFSET 0.000000 15.991302 0.000000
								}
							}
						}
						JOINT newVegas:Right_CapeA
						{
							OFFSET -5.115540 -8.608795 -10.395824
							CHANNELS 3 Xrotation Yrotation Zrotation
							JOINT newVegas:Right_CapeA1
							{
								OFFSET 0.000000 -8.688499 0.000000
								CHANNELS 3 Xrotation Yrotation Zrotation
								End Site
								{
									OFFSET 0.000000 8.688499 0.000000
								}
							}
						}
						JOINT newVegas:Right_CapeB
						{
							OFFSET -26.118187 -8.608795 -7.079266
							CHANNELS 3 Xrotation Yrotation Zrotation
							JOINT newVegas:Right_CapeB1
							{
								OFFSET 0.000000 -8.688499 0.000000
								CHANNELS 3 Xrotation Yrotation Zrotation
								End Site
								{
									OFFSET 0.000000 8.688499 0.000000
								}
							}
						}
					}
				}
				JOINT newVegas:Left_Collar
				{
					OFFSET 18.625099 8.655502 8.828100
					CHANNELS 3 Xrotation Yrotation Zrotation
					JOINT newVegas:Left_Collar1
					{
						OFFSET 14.783401 10.540405 -1.259500
						CHANNELS 3 Xrotation Yrotation Zrotation
						End Site
						{
							OFFSET 0.000000 18.199875 0.000000
						}
					}
				}
				JOINT newVegas:Collar_Back
				{
					OFFSET 0.000000 15.630707 -20.132601
					CHANNELS 3 Xrotation Yrotation Zrotation
					End Site
					{
						OFFSET 0.000000 22.523010 0.000000
					}
				}
				JOINT newVegas:Left_Peck
				{
					OFFSET 17.239599 -5.132599 25.482599
					CHANNELS 3 Xrotation Yrotation Zrotation
					End Site
					{
						OFFSET 0.000000 22.523010 0.000000
					}
				}
				JOINT newVegas:Right_Peck
				{
					OFFSET -17.239599 -5.132202 25.482599
					CHANNELS 3 Xrotation Yrotation Zrotation
					End Site
					{
						OFFSET 0.000000 22.523010 0.000000
					}
				}
				JOINT newVegas:Right_Collar
				{
					OFFSET -18.625099 8.655792 8.828100
					CHANNELS 3 Xrotation Yrotation Zrotation
					JOINT newVegas:Right_Collar1
					{
						OFFSET -14.783401 10.539993 -1.259500
						CHANNELS 3 Xrotation Yrotation Zrotation
						End Site
						{
							OFFSET 0.000000 18.199631 0.000000
						}
					}
				}
			}
		}
		JOINT newVegas:Belly
		{
			OFFSET 0.000000 -6.540398 9.014299
			CHANNELS 3 Xrotation Yrotation Zrotation
			End Site
			{
				OFFSET 0.000000 11.566666 0.000000
			}
		}
	}
	JOINT newVegas:ElvisFacialAnim_Joint
	{
		OFFSET 1.000000 -95.330101 -8.825800
		CHANNELS 3 Xrotation Yrotation Zrotation
		End Site
		{
			OFFSET 0.000000 35.315800 0.000000
		}
	}
}
MOTION
Frames: 4
Frame Time: 0.033333
-4.121238 93.808380 1.877244 6.519048 -64.496595 5.363552 -0.000000 0.000002 -0.000000 -7.003013 2.636023 3.640307 24.343867 9.723464 2.406152 -17.720415 4.508318 -9.629659 -0.000000 0.000001 0.000000 -0.000000 0.000000 0.000001 -25.666347 -8.377032 -9.310620 23.017927 -9.128861 -1.067941 -0.254791 -2.768284 8.989690 -0.000000 0.000000 0.000000 0.000000 -0.000000 -0.000000 1.239262 0.533933 -0.696414 1.388553 0.408727 0.073464 1.388820 0.404943 0.080189 1.533699 1.700915 -0.017935 1.533695 1.700897 -0.017935 0.000000 -0.000001 0.000000 1.533769 1.700915 -0.017939 1.533698 1.700898 -0.017932 -0.000000 0.000003 -0.000001 0.000000 -0.000001 0.000000 0.269617 -8.691453 -16.607402 2.245877 -20.273490 -59.335172 0.000001 -24.618565 0.000001 7.976675 -2.054262 6.749574 2.333997 -4.852045 -3.963502 13.533763 36.265897 -6.789638 -0.000001 -0.000002 -0.000005 2.878049 7.353397 -58.659679 6.385728 5.826667 -95.251878 -0.000000 -0.000001 0.000001 2.878052 7.353377 -58.659686 6.420556 5.823355 -95.595252 -0.000001 0.000002 -0.000001 3.051708 7.454218 -60.629718 5.249923 5.820195 -84.092831 0.000002 -0.000000 -0.000004 2.878063 7.353409 -58.659673 3.100871 5.166396 -61.922242 0.000001 -0.000003 0.000001 -0.000000 0.000001 -0.000001 -0.000000 0.000001 -0.000001 -0.000000 0.000001 -0.000001 0.000000 -0.000001 0.000000 0.000000 -0.000001 -0.000000 0.000000 -0.000001 0.000000 0.000000 -0.000001 0.000000 0.501156 7.814767 11.960095 -0.527785 5.614267 68.098721 -0.000007 16.138989 -0.000018 -7.119659 6.908025 0.567275 12.145610 0.873660 -3.809433 8.168349 -29.948310 -3.235253 0.000001 -0.000002 -0.000001 0.450260 1.407538 7.648646 0.535897 -2.170821 27.731075 -0.000001 0.000002 0.000003 0.120011 -3.097891 10.070079 0.535896 -2.170818 27.731096 0.000003 0.000002 -0.000002 0.864550 -6.550525 12.073388 0.534849 -2.168814 27.703235 -0.000002 0.000001 -0.000001 1.688358 -9.682354 13.210907 0.532471 -2.164282 27.640473 -0.000001 0.000002 -0.000000 -0.000001 0.000000 -0.000001 -0.000002 0.000001 -0.000001 -0.000001 0.000000 -0.000001 -0.000001 0.000001 -0.000001 -0.000001 0.000001 -0.000001 -0.000001 0.000001 -0.000001 -0.000001 0.000001 -0.000002 0.000000 0.000001 -0.000000 0.000000 0.000001 -0.000000 0.000000 0.000001 -0.000000 0.000000 0.000001 -0.000000 0.000000 0.000001 -0.000000 0.000000 0.000001 -0.000000 0.000000 0.000001 -0.000000 -0.000000 0.000001 -0.000000 -0.000000 0.000002 -0.000000 
-3.867051 93.810043 1.982141 6.290450 -64.346461 5.204015 -0.000000 -0.000003 0.000000 -7.257855 2.563183 3.448337 24.627724 9.688002 2.343205 -17.715048 4.437728 -9.400149 -0.000000 -0.000001 -0.000000 -0.000001 0.000000 0.000000 -25.668846 -8.371657 -9.539586 22.891956 -9.131595 -1.114828 -0.010276 -2.825550 9.143661 0.000000 0.000000 0.000000 0.000000 -0.000001 0.000000 1.300944 0.519259 -0.821840 1.453742 0.397049 -0.028841 1.454172 0.394053 -0.021947 1.541522 1.694220 -0.019473 1.541521 1.694229 -0.019471 0.000000 -0.000001 0.000001 1.541523 1.694191 -0.019468 1.541666 1.694180 -0.019473 -0.000000 -0.000000 0.000000 0.000000 -0.000001 0.000001 0.260090 -8.764444 -16.717033 2.342545 -20.371085 -59.141112 0.000001 -24.808126 -0.000017 8.036864 -1.993965 6.918213 2.333995 -4.852040 -3.963503 13.533759 36.265897 -6.789637 -0.000002 -0.000001 -0.000001 2.878047 7.353400 -58.659686 6.385728 5.826666 -95.251878 -0.000000 -0.000002 -0.000005 2.878051 7.353377 -58.659686 6.420558 5.823355 -95.595259 0.000001 0.000002 0.000002 3.051704 7.454222 -60.629711 5.249919 5.820195 -84.092838 -0.000001 -0.000002 -0.000003 2.878061 7.353414 -58.659673 3.100864 5.166397 -61.922242 -0.000002 -0.000003 0.000001 0.000000 -0.000001 -0.000000 0.000000 -0.000001 -0.000000 0.000000 -0.000001 -0.000000 -0.000000 0.000000 -0.000000 -0.000000 0.000000 -0.000000 -0.000000 0.000000 -0.000000 -0.000000 0.000000 -0.000000 0.500989 7.794205 11.975273 -0.428922 5.565606 68.164038 0.000000 16.251624 0.000013 -7.138822 7.012105 0.540383 10.554059 0.941087 -3.478427 8.203019 -30.253073 -3.253276 0.000000 0.000001 0.000001 0.871732 1.213196 10.887842 0.643384 -2.363863 30.447187 0.000001 0.000002 0.000004 0.169706 -3.339824 13.105085 0.583954 -2.259828 28.974537 -0.000002 0.000001 0.000000 1.033518 -6.649319 14.506241 0.599565 -2.287770 29.367812 0.000005 0.000002 0.000002 1.299092 -10.031154 14.467019 0.592792 -2.275678 29.197478 0.000000 0.000002 -0.000003 0.000003 0.000001 -0.000001 0.000001 0.000001 -0.000002 0.000003 0.000001 -0.000001 0.000002 -0.000001 -0.000001 0.000002 -0.000001 -0.000001 0.000002 -0.000001 -0.000001 0.000002 -0.000001 -0.000001 -0.000000 0.000001 -0.000000 -0.000000 0.000001 -0.000000 -0.000000 0.000001 -0.000000 -0.000000 0.000001 -0.000000 -0.000000 0.000001 -0.000000 -0.000000 0.000001 -0.000000 -0.000000 0.000001 -0.000000 -0.000000 -0.000000 -0.000000 -0.000000 -0.000003 0.000000 
-3.625049 93.795891 2.079748 6.069052 -64.209987 5.041502 0.000000 -0.000000 -0.000000 -7.543699 2.502528 3.290474 25.000774 9.673884 2.264015 -17.763936 4.345083 -9.192204 0.000000 -0.000002 0.000000 -0.000003 0.000001 -0.000000 -25.714303 -8.364449 -9.751484 22.857122 -9.117408 -1.166786 0.184363 -2.890398 9.297363 0.000000 -0.000000 -0.000000 -0.000000 -0.000000 -0.000001 1.357847 0.518928 -0.949327 1.511941 0.402747 -0.122354 1.512478 0.400858 -0.115319 1.550554 1.682354 -0.016675 1.550560 1.682362 -0.016673 0.000001 -0.000004 0.000000 1.550558 1.682374 -0.016679 1.550696 1.682342 -0.016675 0.000000 -0.000002 0.000001 0.000001 -0.000004 0.000000 0.251282 -8.804142 -16.850734 2.473519 -20.529623 -58.916139 0.000001 -25.072947 -0.000005 8.088332 -1.929077 7.065757 2.333993 -4.852046 -3.963507 13.533759 36.265904 -6.789639 0.000000 0.000001 -0.000001 2.878049 7.353399 -58.659679 6.385725 5.826668 -95.251878 0.000001 -0.000002 0.000003 2.878051 7.353377 -58.659686 6.420554 5.823357 -95.595259 -0.000001 0.000001 0.000002 3.051704 7.454222 -60.629718 5.249919 5.820194 -84.092831 -0.000002 0.000001 0.000004 2.878062 7.353413 -58.659679 3.100866 5.166394 -61.922249 -0.000001 -0.000003 -0.000000 0.000000 0.000002 -0.000001 0.000000 0.000002 -0.000001 0.000000 0.000002 -0.000002 0.000000 0.000001 0.000001 0.000000 0.000001 0.000001 0.000000 0.000001 0.000001 0.000000 0.000001 0.000001 0.500469 7.788137 11.992397 -0.341554 5.521878 68.199234 -0.000003 16.344899 -0.000013 -7.167270 7.077527 0.534444 8.828948 1.014049 -3.096076 8.240572 -30.583186 -3.272575 -0.000001 0.000000 0.000001 1.340887 1.068346 14.444390 0.771627 -2.569421 33.426492 0.000001 -0.000001 0.000002 0.237472 -3.596980 16.373579 0.637867 -2.354461 30.313349 0.000005 0.000001 -0.000000 1.215546 -6.747569 17.102855 0.671708 -2.411351 31.127050 0.000000 0.000002 0.000003 0.903159 -10.422574 15.791402 0.659795 -2.391545 30.843024 -0.000004 -0.000000 0.000000 0.000002 -0.000000 0.000000 0.000002 0.000000 -0.000000 0.000002 -0.000001 0.000000 -0.000003 -0.000001 0.000000 -0.000003 -0.000001 -0.000000 -0.000003 -0.000001 0.000000 -0.000002 -0.000001 -0.000000 0.000001 -0.000000 0.000000 0.000001 -0.000000 0.000000 0.000001 -0.000000 0.000000 0.000001 -0.000000 0.000000 0.000001 -0.000000 0.000000 0.000001 -0.000000 0.000000 0.000001 -0.000000 0.000000 0.000000 0.000000 -0.000000 0.000000 -0.000000 -0.000000 
-3.405275 93.781845 2.166991 5.868250 -64.086518 4.891294 -0.000000 -0.000001 0.000000 -7.806028 2.471769 3.161126 25.344310 9.663262 2.185498 -17.811223 4.233201 -9.006289 -0.000000 0.000001 -0.000000 0.000004 0.000002 0.000000 -25.751299 -8.350306 -9.933060 22.821453 -9.100156 -1.221053 0.363895 -2.963470 9.440325 0.000000 0.000000 0.000000 -0.000000 0.000000 -0.000001 1.403639 0.528818 -1.088242 1.555915 0.422750 -0.213437 1.556541 0.422071 -0.206322 1.560965 1.663506 -0.008963 1.560974 1.663519 -0.008965 0.000001 -0.000003 0.000000 1.560964 1.663553 -0.008970 1.560963 1.663519 -0.008964 -0.000000 0.000001 -0.000000 0.000001 -0.000003 0.000000 0.244698 -8.805646 -16.986998 2.606376 -20.743795 -58.704827 0.000002 -25.338212 0.000003 8.148451 -1.876446 7.221276 2.333993 -4.852040 -3.963504 13.533753 36.265890 -6.789637 0.000001 -0.000001 -0.000001 2.878045 7.353400 -58.659679 6.385729 5.826668 -95.251878 0.000000 -0.000003 0.000001 2.878051 7.353379 -58.659679 6.420555 5.823354 -95.595259 0.000001 -0.000001 -0.000004 3.051706 7.454223 -60.629718 5.249919 5.820194 -84.092831 -0.000001 0.000001 0.000002 2.878061 7.353406 -58.659673 3.100866 5.166395 -61.922242 -0.000000 -0.000002 0.000000 0.000000 0.000002 0.000001 0.000000 0.000002 0.000001 0.000000 0.000003 0.000000 -0.000000 0.000000 -0.000000 -0.000000 0.000000 -0.000000 -0.000000 0.000000 -0.000000 -0.000000 0.000000 -0.000000 0.499554 7.790786 12.015119 -0.278472 5.482840 68.199172 0.000004 16.402815 -0.000008 -7.195607 7.096162 0.558069 6.979010 1.092615 -2.656001 8.280771 -30.936959 -3.293116 -0.000000 -0.000001 0.000001 1.845419 0.992334 18.270742 0.921207 -2.782580 36.629335 0.000004 0.000000 0.000001 0.326014 -3.867006 19.867716 0.697894 -2.454155 31.744199 0.000002 0.000000 -0.000002 1.410685 -6.843945 19.863647 0.751930 -2.539355 32.984425 -0.000000 0.000002 -0.000001 0.503271 -10.860602 17.185820 0.734120 -2.511717 32.580245 0.000001 -0.000000 0.000000 0.000001 0.000001 -0.000001 0.000001 0.000001 -0.000001 0.000001 0.000001 -0.000001 -0.000001 0.000002 0.000000 -0.000001 0.000002 0.000001 -0.000001 0.000002 0.000000 -0.000001 0.000002 0.000001 0.000000 -0.000002 0.000000 0.000000 -0.000002 0.000000 0.000000 -0.000002 0.000000 0.000000 -0.000002 0.000000 0.000000 -0.000002 0.000000 0.000000 -0.000002 0.000000 0.000000 -0.000002 0.000000 0.000000 -0.000000 0.000000 -0.000000 -0.000001 0.000000 
